<mxfile host="app.diagrams.net" modified="2021-07-23T08:18:02.274Z" agent="5.0 (Windows NT 10.0; Win64; x64) AppleWebKit/537.36 (KHTML, like Gecko) Chrome/92.0.4515.107 Safari/537.36" etag="GWVCkXkuJFzMA1yVG8N-" version="14.9.2" type="github">
  <diagram name="Page-1" id="97916047-d0de-89f5-080d-49f4d83e522f">
    <mxGraphModel dx="918" dy="512" grid="1" gridSize="10" guides="1" tooltips="1" connect="1" arrows="1" fold="1" page="1" pageScale="1.5" pageWidth="1169" pageHeight="827" background="none" math="0" shadow="0">
      <root>
        <mxCell id="0" />
        <mxCell id="1" parent="0" />
        <mxCell id="2" value="問答系統首頁" style="rounded=1;fillColor=#10739E;strokeColor=none;shadow=1;gradientColor=none;fontStyle=1;fontColor=#FFFFFF;fontSize=14;" parent="1" vertex="1">
          <mxGeometry x="758" y="420" width="200" height="60" as="geometry" />
        </mxCell>
        <mxCell id="8" value="提問頁面" style="rounded=1;fillColor=#10739E;strokeColor=none;shadow=1;gradientColor=none;fontStyle=1;fontColor=#FFFFFF;fontSize=14;" parent="1" vertex="1">
          <mxGeometry x="570" y="630" width="200" height="60" as="geometry" />
        </mxCell>
        <mxCell id="18" value="回覆頁面" style="rounded=1;fillColor=#10739E;strokeColor=none;shadow=1;gradientColor=none;fontStyle=1;fontColor=#FFFFFF;fontSize=14;" parent="1" vertex="1">
          <mxGeometry x="950" y="630" width="200" height="60" as="geometry" />
        </mxCell>
        <mxCell id="34" value="" style="edgeStyle=elbowEdgeStyle;elbow=vertical;strokeWidth=4;endArrow=block;endFill=1;fontStyle=1;strokeColor=#23445D;exitX=0;exitY=0.5;exitDx=0;exitDy=0;entryX=0.5;entryY=0;entryDx=0;entryDy=0;" parent="1" source="ut_rex9XEglcrER3l6WF-56" target="8" edge="1">
          <mxGeometry x="230" y="145.5" width="100" height="100" as="geometry">
            <mxPoint x="720" y="660" as="sourcePoint" />
            <mxPoint x="630" y="630" as="targetPoint" />
            <Array as="points">
              <mxPoint x="700" y="550" />
              <mxPoint x="700" y="550" />
              <mxPoint x="680" y="550" />
              <mxPoint x="760" y="535.5" />
            </Array>
          </mxGeometry>
        </mxCell>
        <mxCell id="54" value="" style="edgeStyle=elbowEdgeStyle;elbow=vertical;strokeWidth=4;endArrow=block;endFill=1;fontStyle=1;strokeColor=#23445D;exitX=0.5;exitY=1;exitDx=0;exitDy=0;entryX=0.5;entryY=0;entryDx=0;entryDy=0;" parent="1" source="2" target="ut_rex9XEglcrER3l6WF-56" edge="1">
          <mxGeometry x="230" y="145.5" width="100" height="100" as="geometry">
            <mxPoint x="980" y="479.9999999999998" as="sourcePoint" />
            <mxPoint x="858" y="536" as="targetPoint" />
            <Array as="points" />
          </mxGeometry>
        </mxCell>
        <mxCell id="55" value="" style="edgeStyle=elbowEdgeStyle;elbow=vertical;strokeWidth=4;endArrow=block;endFill=1;fontStyle=1;strokeColor=#23445D;entryX=0.5;entryY=0;entryDx=0;entryDy=0;" parent="1" target="18" edge="1">
          <mxGeometry x="230" y="145.5" width="100" height="100" as="geometry">
            <mxPoint x="960" y="550" as="sourcePoint" />
            <mxPoint x="330" y="145.5" as="targetPoint" />
            <Array as="points">
              <mxPoint x="1090" y="550" />
              <mxPoint x="1090" y="580" />
              <mxPoint x="1150" y="550" />
              <mxPoint x="1140" y="620" />
              <mxPoint x="1100" y="540" />
              <mxPoint x="1050" y="550" />
              <mxPoint x="1050" y="550" />
            </Array>
          </mxGeometry>
        </mxCell>
        <mxCell id="ut_rex9XEglcrER3l6WF-56" value="問題列表" style="rounded=1;fillColor=#10739E;strokeColor=none;shadow=1;gradientColor=none;fontStyle=1;fontColor=#FFFFFF;fontSize=14;" vertex="1" parent="1">
          <mxGeometry x="758" y="520" width="200" height="60" as="geometry" />
        </mxCell>
      </root>
    </mxGraphModel>
  </diagram>
</mxfile>
